<svg xmlns="http://www.w3.org/2000/svg" viewBox="0 0 14 13"><path fill="#1B1918" d="M13.75,11.3a3.65,3.65,0,0,1-2.33,1.64,5.63,5.63,0,0,1-2.13-.1,20.56,20.56,0,0,1-1.93-.77A14.64,14.64,0,0,1,1.45,6.86,6.29,6.29,0,0,1,0,3.29,4.07,4.07,0,0,1,1.16.39a1.07,1.07,0,0,1,1-.39h.68c.19,0,.48-.09.77.58S4.55,3,4.65,3.09a.66.66,0,0,1,0,.58,2,2,0,0,1-.39.58c-.19.19-.39.48-.48.58s-.39.39-.2.68A9.82,9.82,0,0,0,5.52,7.92,10.73,10.73,0,0,0,8.33,9.66a.57.57,0,0,0,.77-.1,9,9,0,0,0,1.07-1.35c.19-.39.48-.29.77-.2s2,1,2.32,1.16a3,3,0,0,1,.68.39A3,3,0,0,1,13.75,11.3Z"/></svg>