<svg xmlns="http://www.w3.org/2000/svg" viewBox="0 0 16 17"><path fill="#7C509A" d="M12.38.4A24.66,24.66,0,0,0,3.56.4a4.92,4.92,0,0,0-3.18,3,16.2,16.2,0,0,0,0,7,5.16,5.16,0,0,0,3.18,3,.11.11,0,0,1,.11.1v3.39a.19.19,0,0,0,.34.11l1.67-1.67,1.57-1.56a.18.18,0,0,1,.11,0,27.23,27.23,0,0,0,5.08-.38,4.9,4.9,0,0,0,3.18-3,16.16,16.16,0,0,0,0-7A5.17,5.17,0,0,0,12.38.4Zm.06,10.12a2.56,2.56,0,0,1-1.17,1.24l-.51.16-.55-.16A13.2,13.2,0,0,1,5.4,8.69,13.07,13.07,0,0,1,3.56,6,15.24,15.24,0,0,1,3,4.6a1.2,1.2,0,0,1,.39-1.18,2.49,2.49,0,0,1,1-.7.62.62,0,0,1,.78.16A10.87,10.87,0,0,1,6.35,4.55a.75.75,0,0,1-.22,1.07,1.08,1.08,0,0,0-.28.22c-.06,0-.17.1-.22.21a.49.49,0,0,0-.06.49A4.57,4.57,0,0,0,8.14,9.28a1.33,1.33,0,0,0,.67.16c.39,0,.56-.48.84-.7a.88.88,0,0,1,.95-.05c.28.16.56.38.89.59s.56.38.84.59A.53.53,0,0,1,12.44,10.52Zm-2.35-4h0c-.22,0-.27-.1-.33-.27a.8.8,0,0,0-.06-.37.94.94,0,0,0-.39-.59L9,5.08a1.38,1.38,0,0,0-.45,0,.29.29,0,0,1-.22-.32c0-.11.16-.22.28-.22a1.64,1.64,0,0,1,1.67,1.56v.22C10.26,6.38,10.21,6.48,10.09,6.48ZM9.54,4.12a4,4,0,0,0-.9-.27c-.11,0-.28-.06-.39-.06S8,3.69,8,3.52a.2.2,0,0,1,.28-.21,4.82,4.82,0,0,1,1.56.38A3,3,0,0,1,11.6,6.05v.7a.26.26,0,0,1-.5,0S11,6.59,11,6.54a3.07,3.07,0,0,0-.33-1.4A3,3,0,0,0,9.54,4.12Zm3,3.22A.3.3,0,0,1,12.27,7a5.44,5.44,0,0,0-.11-1A4.06,4.06,0,0,0,8.75,2.66c-.28-.05-.55-.05-.78-.1s-.39,0-.44-.22S7.64,2,7.8,2h.12c2.29,0,.11,0,0,0a4.69,4.69,0,0,1,4.69,3.82A8.46,8.46,0,0,1,12.72,7,.2.2,0,0,1,12.55,7.34Z"/></svg>