<svg xmlns="http://www.w3.org/2000/svg" viewBox="0 0 15 15"><path fill="#48C95F" d="M12.8,2.19A7.47,7.47,0,0,0,.05,7.45a7.54,7.54,0,0,0,1,3.7L0,15l4-1a7.69,7.69,0,0,0,3.56.88A7.45,7.45,0,0,0,15,7.4,7.54,7.54,0,0,0,12.8,2.19ZM11.13,10.1A1.93,1.93,0,0,1,9.88,11a3,3,0,0,1-1.15-.05c-.26-.11-.63-.21-1.05-.42A8,8,0,0,1,4.49,7.71a3.42,3.42,0,0,1-.78-1.93,2.16,2.16,0,0,1,.63-1.56A.56.56,0,0,1,4.86,4h.37c.1,0,.26,0,.41.31s.53,1.31.58,1.36a.34.34,0,0,1,0,.31A1.13,1.13,0,0,1,6,6.3l-.26.31c-.11.11-.21.21-.11.37a5.17,5.17,0,0,0,1.05,1.3,5.78,5.78,0,0,0,1.52.94.31.31,0,0,0,.41-.05,4.65,4.65,0,0,0,.58-.73c.1-.21.26-.16.42-.11s1.09.52,1.25.63a1.44,1.44,0,0,1,.37.21A1.59,1.59,0,0,1,11.13,10.1Z"/></svg>